<svg xmlns="http://www.w3.org/2000/svg" width="257" height="81" viewBox="0 0 257 81" class="editor-view__logo-preview" data-v-719f541d="" data-v-75053935=""><svg id="mark" viewBox="0 0 1024 1024" width="81" height="81" x="0" y="0" data-v-719f541d="" style="fill: rgb(255, 255, 255);"><rect x="0" y="0" width="100%" height="100%" fill="none" data-v-719f541d=""></rect><g data-v-719f541d="">
	<path xmlns="http://www.w3.org/2000/svg" d="M 165.833 0.859 C 165.650 1.331, 155.980 11.568, 144.344 23.609 C 122.907 45.790, 116.466 52.945, 98.523 74.509 C 93.035 81.104, 88.283 86.725, 87.962 87 C 86.731 88.054, 60.279 121.836, 56 127.818 C 53.525 131.278, 48.573 138.022, 44.996 142.805 C 36.985 153.514, 29.585 164, 28.626 166 C 27.652 168.033, 29.860 165.168, 49 139.568 C 64.710 118.555, 83.021 95.130, 94.781 81 C 97.757 77.425, 102.061 72.256, 104.346 69.513 C 115.667 55.921, 128.121 42.515, 148.255 22.250 C 164.384 6.016, 169.794 -0, 168.264 -0 C 167.110 -0, 166.017 0.386, 165.833 0.859 M 184.784 7.679 C 157.938 29.885, 104.514 88.847, 72.591 131.500 C 63.982 143.003, 51.924 159.616, 50.644 161.737 C 50.234 162.417, 54.413 160.729, 59.930 157.987 C 65.447 155.244, 70.219 153, 70.534 153 C 72.433 153, 79.016 147.191, 83.862 141.237 C 98.051 123.807, 125.556 91.261, 136.459 79 C 151.764 61.789, 183.373 30.141, 201.750 13.630 C 209.588 6.588, 216 0.640, 216 0.413 C 216 0.186, 211.065 0, 205.034 0 L 194.068 0 184.784 7.679 M 227.500 7.199 C 208.289 24.214, 186.410 44.666, 171.539 59.511 C 154.480 76.540, 124.996 109.591, 113.562 124.500 C 109.766 129.450, 104.856 135.702, 102.650 138.394 C 100.444 141.085, 99.058 143.110, 99.569 142.894 C 105.574 140.354, 129.470 128.080, 132.606 125.925 C 134.864 124.372, 141.003 118.017, 146.247 111.801 C 158.464 97.321, 179.905 75.687, 194 63.618 C 196.475 61.498, 200.083 57.464, 202.017 54.653 C 205.362 49.790, 206.605 48.995, 227.517 38.336 C 239.608 32.173, 254.450 25.033, 260.500 22.468 C 274.794 16.409, 278.988 14.285, 281.847 11.657 C 284.221 9.476, 288 2.954, 288 1.040 C 288 0.345, 279.290 0.019, 261.750 0.057 L 235.500 0.114 227.500 7.199 M 435.173 4.093 C 426.749 8.412, 406.264 23.325, 397 31.884 C 391.722 36.759, 391.642 36.908, 395 35.578 C 411.806 28.919, 455.964 20.932, 492.631 17.918 C 511.806 16.342, 571.913 17.255, 590 19.397 C 618.139 22.729, 650.464 28.797, 670.500 34.510 C 685.725 38.851, 709.946 47.400, 721.267 52.428 C 739.440 60.500, 802.012 92.711, 821 103.769 C 834.477 111.618, 869.022 135.245, 883.709 146.660 C 895.400 155.746, 909.774 169.636, 911.999 173.998 C 912.985 175.930, 918.855 184.484, 925.045 193.006 C 949.802 227.092, 963.990 249.244, 977.240 274.500 C 986.054 291.299, 986.210 290.698, 978.279 270.500 C 967.017 241.821, 957.168 223.475, 938.073 195.612 C 925.926 177.888, 917.585 168.264, 912.409 166.003 C 910.095 164.992, 908.240 162.623, 905.026 156.576 C 892.989 133.925, 885.543 122.717, 875.619 112.309 C 843.530 78.657, 783.295 35.653, 744.279 18.542 C 730.610 12.547, 713.527 6.559, 700 3.021 C 689.296 0.221, 687.289 0.015, 671 0.041 L 653.500 0.069 666.799 4.961 C 674.113 7.651, 686.038 12.797, 693.299 16.395 C 711.035 25.186, 731.269 35.878, 732.500 37.111 C 733.870 38.484, 731.119 37.304, 722.178 32.685 C 701.123 21.808, 659.866 8.506, 627.142 2.045 C 617.190 0.080, 613.380 0, 529.970 0 L 443.156 0 435.173 4.093 M 739.083 0.363 C 739.313 0.562, 744.450 3.322, 750.500 6.497 C 782.186 23.124, 798.063 32.881, 821 49.824 C 849.631 70.974, 872.320 92.782, 890.369 116.500 C 893.717 120.900, 900.772 129, 906.047 134.500 C 914.246 143.050, 916.052 145.560, 918.501 151.812 C 921.350 159.086, 922.848 160.759, 929.449 164.036 C 933.179 165.888, 936.735 169.399, 951.007 185.325 C 969.925 206.434, 978.984 219.388, 993.859 246.600 C 1002.168 261.799, 1010.500 280.482, 1018.118 300.993 L 1023.500 315.486 1023.776 300.860 L 1024.052 286.234 1014.665 268.367 C 991.852 224.949, 977.599 203.136, 952.023 172.500 C 939.278 157.233, 909.556 126.800, 901.370 120.636 C 897.392 117.639, 895.385 115.060, 892.427 109.136 C 889.521 103.317, 886.198 99.001, 878.465 91 C 872.883 85.225, 865.134 76.225, 861.246 71 C 853.782 60.971, 844.983 52.777, 824.500 36.781 C 806.506 22.728, 802.866 20.161, 786.039 9.654 L 770.579 0 754.623 0 C 745.847 0, 738.854 0.163, 739.083 0.363 M 796.500 1.605 C 797.600 2.453, 799.343 3.609, 800.373 4.174 C 802.203 5.179, 802.203 5.144, 800.373 2.632 C 799.343 1.219, 797.600 0.063, 796.500 0.063 L 794.500 0.064 796.500 1.605 M 835 29.405 C 835 29.591, 841.300 35.243, 848.999 41.964 C 865.645 56.495, 876.824 68.279, 881.761 76.500 C 886.792 84.877, 892.822 92.524, 899.661 99.201 C 904.457 103.883, 906.080 104.883, 908.750 104.798 C 910.538 104.742, 912 104.394, 912 104.026 C 912 101.610, 899.718 86.429, 887.772 74.081 C 880.015 66.061, 870.358 55.621, 866.313 50.881 C 860.078 43.573, 858.105 41.935, 853.343 40.113 C 850.254 38.931, 844.863 35.962, 841.363 33.515 C 837.863 31.069, 835 29.219, 835 29.405 M 487 34.107 C 449.962 37.031, 409.163 45.557, 375 57.512 C 336.557 70.965, 297.659 92.967, 261.127 121.920 C 222.087 152.861, 194.763 181.556, 167.259 220.500 C 161.432 228.750, 154.923 237.866, 152.794 240.758 C 144.184 252.454, 127.182 283.936, 118.487 304.284 C 116.423 309.115, 114.563 312.896, 114.354 312.687 C 112.801 311.135, 130.824 273.167, 141.907 254.644 C 145.808 248.123, 149 242.397, 149 241.918 C 149 241.440, 148.102 239.575, 147.004 237.774 C 144.287 233.318, 144.479 230.773, 148.062 223.721 C 151.042 217.858, 159.214 204.553, 163.554 198.500 C 169.883 189.673, 167.586 191.389, 156.995 203.399 C 145.146 216.837, 140.036 223.973, 128.282 243.500 C 115.197 265.239, 104.431 287.032, 92.655 315.618 C 77.799 351.682, 67.113 392.326, 60.479 438 C 56.650 464.366, 55.662 477.918, 55.708 503.500 C 55.805 558.370, 64.687 612.715, 81.367 660.500 C 94.893 699.247, 112.657 734.655, 139.315 776 C 171.358 825.698, 220.265 876.501, 264 905.519 C 293.551 925.126, 316.103 937.374, 340.309 946.963 C 397.515 969.625, 447.613 978.591, 528.500 980.644 C 566.039 981.596, 592.528 979.138, 633.490 970.901 C 666.973 964.167, 693.921 956.404, 720.292 945.895 C 735.442 939.857, 761.992 927.301, 771.500 921.678 C 774.250 920.051, 777.850 917.939, 779.500 916.985 C 789.273 911.329, 814.138 895.444, 844.873 875.219 C 853 869.871, 888.987 842.309, 899.902 833.072 C 907.815 826.376, 927.161 802.168, 940.716 782 C 951.133 766.502, 972.293 729, 970.621 729 C 970.448 729, 966.990 733.837, 962.936 739.750 C 953.512 753.496, 938.459 772.194, 920.318 792.690 C 883.907 833.828, 861.590 854.632, 831.500 875.486 L 824.500 880.338 833.902 871.444 C 851.708 854.600, 868.816 834.703, 896.622 798.500 C 922.309 765.057, 936.615 741.152, 951.981 706 C 976.190 650.616, 988.795 589.655, 990.646 519 C 991.915 470.586, 984.208 416.525, 968.908 366.500 C 953.034 314.599, 938.598 284.290, 908.217 239.073 C 892.528 215.723, 885.595 206.260, 874.094 192.500 C 845.502 158.290, 814.633 131.687, 770 102.789 C 708.238 62.800, 638.912 40.133, 559.605 33.998 C 544.627 32.839, 502.257 32.903, 487 34.107 M 741.021 44.979 C 748.313 53.451, 751.363 56.373, 758.500 61.724 C 767.100 68.172, 797.247 83.086, 798.715 81.619 C 799.238 81.096, 776.415 65.435, 768.040 60.569 C 764.487 58.505, 759.240 54.678, 756.381 52.066 C 753.522 49.453, 749.680 46.581, 747.842 45.685 C 746.004 44.788, 742.484 42.830, 740.021 41.334 L 735.542 38.613 741.021 44.979 M 497 54.583 C 466.996 57.102, 467.822 57.003, 447 60.548 C 426.277 64.076, 396.388 72.479, 375.500 80.649 C 349.465 90.833, 324.721 103.732, 301.686 119.127 C 248.157 154.904, 207.344 195.673, 172.566 248.108 C 167.316 256.024, 162.161 263.625, 161.110 265 C 155.486 272.358, 146.957 286.746, 142.732 296 C 131.944 319.628, 112.988 372.734, 113.006 379.274 C 113.010 380.696, 114.094 382.115, 116.006 383.203 C 119.603 385.250, 119.739 387.077, 116.962 396 C 111.389 413.906, 106.119 439.349, 103.810 459.500 C 102.208 473.471, 102.214 515.542, 103.818 528 C 111.873 590.540, 129.322 644.614, 156.216 690.381 C 192.885 752.780, 234.927 795.266, 298.630 834.298 C 350.249 865.926, 406.004 884.829, 464.500 890.534 C 484.481 892.483, 525.352 892.777, 541 891.084 C 580.108 886.852, 639.820 868.877, 665.453 853.619 C 670.429 850.657, 681.925 844.616, 691 840.195 C 700.303 835.662, 711.208 829.451, 716 825.954 C 726.901 818, 729.097 817.053, 749.396 811.543 C 759.961 808.674, 768.951 805.559, 773.391 803.228 C 781.396 799.025, 791.202 789.792, 805.498 773 C 810.414 767.225, 817.682 759.050, 821.648 754.834 C 829.043 746.974, 834.688 739.354, 833.785 738.452 C 832.420 737.087, 827.281 740.733, 819.300 748.728 C 812.105 755.936, 808.768 758.423, 801 762.367 C 790.001 767.953, 786.888 770.142, 778 778.541 C 765.352 790.493, 755.537 795.795, 738.231 800.023 C 724.516 803.374, 717.970 806.260, 706.447 814.036 C 698.049 819.703, 688.911 823.907, 671 830.344 C 647.987 838.614, 632.322 842.487, 601.500 847.525 C 540.051 857.568, 484.198 857.383, 433 846.966 C 372.417 834.639, 329.268 810.718, 273.631 758.615 C 261.785 747.521, 242.407 727.212, 232 714.982 C 226.442 708.451, 220.463 701.817, 213.541 694.500 C 206.452 687.007, 185.958 653.486, 177.470 635.500 C 160.550 599.644, 150.104 553.307, 146.924 500 C 143.553 443.486, 153.192 380.816, 173.686 326 C 178.791 312.347, 181.412 308, 184.539 308 C 186.815 308, 189 311.021, 189 314.167 C 189 315.830, 185.641 327.385, 181.536 339.845 C 170.475 373.418, 165.456 393.709, 161.583 420.500 C 155.136 465.102, 156.736 523.937, 165.584 567.627 C 170.376 591.288, 181.798 625.847, 192.085 647.805 C 196.891 658.064, 206.754 676, 207.589 676 C 208.056 676, 207.822 675.420, 200.518 658.500 C 195.078 645.900, 190 631.800, 190 629.296 C 190 628.356, 195.063 636.006, 201.250 646.295 C 237.908 707.249, 278.131 752.656, 324.500 785.427 C 365.541 814.432, 403.634 829.547, 454.428 836.982 C 503.269 844.130, 562.796 841.550, 618.500 829.869 C 654.055 822.414, 678.460 813.666, 702.194 799.869 C 709.756 795.473, 730.714 787, 734.026 787 C 737.763 787, 753.955 781.123, 760.866 777.258 C 773.873 769.984, 794.793 752.157, 819.969 726.892 C 827.427 719.408, 834.567 712.955, 835.835 712.552 C 837.712 711.957, 838.826 712.557, 841.821 715.781 C 843.844 717.960, 847.862 721.189, 850.750 722.957 C 855.994 726.168, 856.419 726.773, 856.016 730.464 C 855.602 734.263, 842.343 751.616, 825.796 770.015 C 813.908 783.233, 808.507 788.315, 795.088 798.903 C 770.992 817.917, 769.384 818.848, 749.179 825.479 C 734.806 830.196, 727.173 834.390, 714.500 844.534 C 709.435 848.588, 707.340 849.664, 698.941 852.520 C 695.196 853.794, 689.359 856.719, 685.971 859.020 C 679.193 863.623, 648.551 879.093, 637.500 883.492 C 603.766 896.919, 575.062 903.155, 538.372 905.030 C 461.911 908.936, 391.567 895.622, 329.446 865.488 C 301.896 852.124, 266.843 830.197, 244.500 812.350 C 230.716 801.340, 197.989 768.751, 187.408 755.500 C 165.803 728.440, 155.371 712.468, 138.752 681 C 124.647 654.293, 116.689 634.516, 109.034 607.146 C 105.524 594.597, 104.011 587.567, 99.100 561 C 98.097 555.574, 98.091 555.601, 98.594 563 C 100.700 593.934, 112.688 643.209, 121.464 657 C 128.326 667.783, 128.497 668.302, 126.671 672.864 C 124.841 677.437, 123.759 674.685, 136.929 698.948 C 161.209 743.679, 182.287 771.482, 216.483 803.887 C 243.639 829.619, 282.490 857.195, 313.519 872.760 C 324.641 878.340, 352.403 890.261, 364 894.438 C 395.038 905.616, 439.734 914.766, 479.500 918.082 C 497.077 919.548, 539.549 918.732, 558 916.574 C 597.310 911.977, 631.310 903.395, 668 888.808 C 687.012 881.250, 703.704 872.515, 723 860.026 C 732.625 853.797, 744.100 847.026, 748.500 844.981 C 755.953 841.515, 766.724 838.391, 767.734 839.401 C 768.469 840.136, 763.185 848.508, 758.950 853.320 C 754.413 858.473, 744.566 865.226, 734.859 869.841 C 731.207 871.577, 726.032 874.963, 723.359 877.365 C 711.286 888.215, 658.615 910.289, 626.500 917.957 C 561.492 933.481, 505.534 934.807, 434.500 922.507 C 360.746 909.736, 271.114 865.858, 208 811.627 C 202.225 806.665, 196.805 801.906, 195.955 801.052 C 195.106 800.199, 191.987 797.250, 189.025 794.500 C 184.810 790.586, 184.243 790.260, 186.414 793 C 198.217 807.892, 228.035 836.951, 244.954 850.049 C 275.169 873.441, 318.561 899.076, 352.254 913.439 C 399.385 933.532, 444.212 944.929, 496.500 950.115 C 505.468 951.004, 589.668 953.293, 611 953.227 C 637.097 953.146, 699.011 935.030, 735.253 916.870 C 790.358 889.259, 828.329 855.008, 867.398 797.669 C 896.552 754.883, 909.202 730.552, 925.977 685 C 948.683 623.342, 958.579 555.761, 955.043 486.500 C 952.986 446.204, 952.396 448.475, 952.836 495 C 953.289 542.980, 952.628 556.307, 948.548 581.500 C 941.787 623.250, 933.906 648.293, 912.966 694.576 C 891.617 741.760, 856.384 791.745, 833.500 807.312 C 830.200 809.557, 824.848 813.341, 821.607 815.721 C 818.366 818.101, 815.532 819.865, 815.308 819.642 C 815.085 819.418, 816.951 816.305, 819.455 812.723 C 821.959 809.141, 824.283 804.835, 824.619 803.155 C 825.015 801.174, 828.391 796.737, 834.217 790.541 C 848.275 775.588, 851.031 771.796, 862.928 751.031 C 891.374 701.385, 915.105 646.823, 925.109 608.067 C 927.472 598.912, 928.770 595.766, 931.623 592.284 C 938.156 584.312, 942.060 568.777, 944.980 539.144 C 948.306 505.380, 942.023 447.512, 929.598 397.486 C 920.476 360.756, 909.892 331.630, 894.538 301 C 863.005 238.095, 828.620 191.838, 782.500 150.280 C 756.735 127.063, 734.509 112.157, 700 94.950 C 655.810 72.915, 618.162 61.808, 569.500 56.448 C 556.404 55.005, 507.083 53.737, 497 54.583 M 620.500 58.456 C 621.050 58.709, 627.800 60.334, 635.500 62.069 C 643.200 63.803, 656.433 67.464, 664.908 70.203 C 685.251 76.779, 683.833 76.369, 681.951 75.138 C 679.590 73.594, 665.091 68.452, 655.271 65.675 C 642.124 61.957, 616.569 56.652, 620.500 58.456 M 905 62 C 905.825 62.533, 906.950 62.969, 907.500 62.969 C 908.050 62.969, 907.825 62.533, 907 62 C 906.175 61.467, 905.050 61.031, 904.500 61.031 C 903.950 61.031, 904.175 61.467, 905 62 M 911.500 65 C 914.249 66.181, 915.828 66.181, 914 65 C 913.175 64.467, 911.825 64.055, 911 64.086 C 910.011 64.122, 910.181 64.433, 911.500 65 M 941.063 67.179 C 940.974 69.558, 938.092 72.153, 936.145 71.607 C 935.240 71.354, 932.475 70.899, 930 70.598 L 925.500 70.049 930.500 71.505 C 936.755 73.327, 941.908 73.404, 942.567 71.685 C 942.845 70.961, 942.634 69.274, 942.099 67.935 C 941.453 66.316, 941.106 66.063, 941.063 67.179 M 919 67.909 C 919.825 68.376, 921.625 69.056, 923 69.421 L 925.500 70.083 923 68.577 C 921.625 67.749, 919.825 67.069, 919 67.066 C 917.667 67.061, 917.667 67.155, 919 67.909 M 921 77.991 C 921 79.250, 929.421 85.901, 939.701 92.761 C 946.078 97.017, 948.969 98.332, 952.701 98.671 L 957.500 99.108 951 93.006 C 947.425 89.649, 941.800 85.628, 938.500 84.070 C 929.673 79.903, 921 76.890, 921 77.991 M 536.820 89.930 C 535.346 90.403, 531.610 92.602, 528.517 94.816 L 522.894 98.843 528.197 99.393 C 531.114 99.696, 540.250 100.435, 548.500 101.035 C 591.625 104.172, 631.649 111.307, 658.067 120.567 C 700.534 135.453, 739.001 165.569, 775.853 212.784 C 792.783 234.476, 808.494 261.279, 821.992 291.500 C 826.219 300.964, 825.122 294.076, 819.908 278.414 C 810.667 250.656, 795.856 224.349, 774.352 197.500 C 763.625 184.106, 734.622 154.788, 723 145.590 C 685.615 116, 640.433 97.804, 589 91.621 C 573.951 89.813, 540.560 88.730, 536.820 89.930 M 376.465 99.473 C 367.174 102.410, 345.554 111.437, 332.500 117.830 C 309.611 129.041, 270.651 154.654, 249.822 172.185 C 221.291 196.199, 191.979 230.548, 174.459 260.500 C 166.729 273.715, 166.958 276.219, 175.668 273.724 C 180.391 272.371, 180.747 271.979, 191.500 256.292 C 197.550 247.465, 204.897 237.151, 207.826 233.372 C 221.610 215.588, 248.734 188.023, 263 177.303 C 266.025 175.030, 272.550 170.844, 277.500 168.002 C 288.010 161.967, 298.004 154.886, 337.500 125.491 C 354.474 112.858, 360.813 108.882, 374.148 102.510 C 383.423 98.078, 384.231 97.018, 376.465 99.473 M 911 107.808 C 911 108.325, 913.291 110.942, 916.091 113.624 C 922.611 119.869, 933.575 132.778, 943.164 145.500 C 947.309 151, 954.619 160.225, 959.408 166 C 977.432 187.735, 1004.444 231.825, 1019.027 263.311 C 1021.487 268.622, 1023.883 272.975, 1024.350 272.984 C 1024.818 272.993, 1024.882 264.788, 1024.493 254.750 L 1023.785 236.500 1016.764 224 C 1003.388 200.187, 990.563 182.865, 977.567 171.061 C 971.502 165.552, 969.170 164.052, 966.288 163.808 C 962.223 163.463, 960.648 161.166, 963.895 160.317 C 967.357 159.412, 966.311 157.175, 960.750 153.598 C 957.862 151.740, 948.253 142.633, 939.395 133.360 C 924.430 117.694, 911 105.609, 911 107.808 M 752.500 112.722 C 753.050 113.295, 757.502 116.584, 762.393 120.032 C 775.901 129.555, 787.982 139.885, 804.379 155.936 C 848.224 198.854, 878.830 241.870, 911.152 306 C 925.331 334.132, 926.542 335.441, 921.336 317 C 914.133 291.487, 899.952 263.198, 879.239 233.024 C 854.142 196.463, 824.822 165.249, 789.855 137.864 C 777.648 128.303, 748.854 108.924, 752.500 112.722 M 493.382 122.089 C 480.880 123.205, 429.860 130.553, 417 133.089 C 391.053 138.206, 377.398 142.698, 358.545 152.317 C 341.300 161.116, 318.006 177.482, 296.500 195.910 C 282.145 208.210, 245.937 244.763, 229.005 264.046 C 221.033 273.125, 212.565 282.229, 210.187 284.277 C 207.809 286.325, 206.232 287.992, 206.682 287.983 C 208.698 287.942, 224.742 278.565, 229.240 274.799 C 231.979 272.506, 241.320 262.725, 249.998 253.065 C 318.783 176.488, 375.096 142.543, 439.233 138.996 C 448.987 138.456, 464.962 137.109, 474.733 136.001 C 510.115 131.992, 537.389 132.302, 572 137.107 C 598.417 140.775, 619.193 146.029, 636.910 153.522 L 647.320 157.925 643.968 154.467 C 638.893 149.231, 622.260 137.953, 615.559 135.203 C 590.472 124.911, 532.031 118.638, 493.382 122.089 M 1021 128.378 C 1021 128.585, 1021.675 129.315, 1022.500 130 C 1023.729 131.020, 1024 130.951, 1024 129.622 C 1024 128.730, 1023.325 128, 1022.500 128 C 1021.675 128, 1021 128.170, 1021 128.378 M 669.170 143.874 C 668.420 144.349, 667.984 145.957, 668.170 147.561 C 668.448 149.953, 671.213 152.398, 685.580 162.952 C 720.682 188.740, 736.915 203.186, 757.581 227.025 C 779.214 251.981, 790.364 268.892, 807.869 303.297 C 832.983 352.659, 847.779 407.742, 854.531 477.013 C 856.637 498.617, 856.685 545.817, 854.617 562 C 852.570 578.023, 849.470 592.837, 845.827 604 C 832.136 645.953, 808.482 688.234, 780.371 721 C 756.589 748.720, 743.591 758.146, 724.735 761.345 C 716.763 762.698, 714.696 763.577, 701.868 771.077 C 678.945 784.479, 658.079 793.082, 629.263 801.013 C 554.404 821.618, 475.056 823.175, 414.500 805.228 C 350.939 786.391, 287.377 736.782, 240.596 669.500 C 226.246 648.861, 211.698 621.752, 202.568 598.636 C 183.484 550.315, 178.953 490.988, 189.053 421.673 C 192.718 396.520, 198.382 372.767, 208.568 339.829 C 209.245 337.640, 205.305 334, 202.260 334 C 199.435 334, 198.606 335.753, 193.468 352.603 C 185.451 378.893, 178.734 412.206, 175.441 442 C 173.294 461.424, 172.418 511.488, 173.911 529.353 C 177.077 567.225, 185.158 596.341, 201.984 630.500 C 221.784 670.699, 243.526 700.576, 278.454 735.585 C 318.909 776.133, 361.493 802.925, 409.500 818.034 C 450.261 830.862, 514.412 835.134, 565.845 828.446 C 621.497 821.209, 675.794 804.095, 704.243 784.825 C 712.275 779.385, 717.572 777.316, 730.788 774.459 C 746.416 771.080, 748.824 769.685, 768.430 752.656 C 784.277 738.893, 799.322 721.439, 812.959 701 C 848.794 647.291, 866.459 598.007, 871.026 539 C 873.412 508.162, 868.952 470.570, 854.830 402.500 C 849.598 377.280, 831.864 326.710, 819.762 302.500 C 813.799 290.571, 800.020 267.015, 791.684 254.500 C 770.935 223.347, 739.731 190.353, 706 163.902 C 682.754 145.672, 673.915 140.866, 669.170 143.874 M 491.163 149.054 C 446.120 153.077, 406.813 164.112, 373 182.225 C 336.949 201.538, 312.817 219.158, 286.390 245.461 C 259.983 271.745, 242.043 297.157, 227.768 328.500 C 198.379 393.027, 187.808 484.335, 201.545 555 C 206.235 579.125, 214.699 604.855, 223.913 623 C 259.100 692.293, 316.967 750.811, 380 780.843 C 408.734 794.534, 435.674 801.704, 475 806.130 C 491.588 807.997, 533.932 807.720, 552.199 805.625 C 566.217 804.017, 590.376 800.148, 600 797.970 C 645.104 787.760, 669.785 778.737, 700.361 761.278 C 733.654 742.269, 757.665 719.190, 777.232 687.393 C 800.519 649.551, 817.366 598.227, 822.477 549.558 C 824.279 532.405, 824.591 480.589, 822.996 463.500 C 817.760 407.395, 808.560 369.359, 790.878 330.722 C 770.957 287.190, 737.991 250.150, 695.006 223.004 C 652.790 196.343, 608.123 180.730, 553 173.367 C 536.435 171.154, 497.477 170.873, 483 172.863 C 413.740 182.379, 348.560 213.351, 303.939 257.947 C 263.090 298.773, 240.757 344.144, 228.603 411 C 223.179 440.839, 222.497 449.226, 222.547 485.500 C 222.591 517.833, 222.730 520.334, 225.377 536.500 C 230.822 569.752, 237.845 591.951, 251.334 618.544 C 278.332 671.773, 312.199 708.480, 363.131 739.718 C 411.866 769.607, 462.853 781.244, 538.401 779.720 C 560.463 779.275, 566.897 778.783, 580 776.537 C 636.959 766.774, 679.942 749.512, 714.500 722.523 C 753.413 692.132, 784.349 632.651, 795.464 566.851 C 802.065 527.775, 802.846 476.563, 797.436 437.500 C 787.260 364.028, 768.454 319.597, 731.045 280.644 C 718.422 267.501, 705.057 256.568, 678.621 237.759 C 672.062 233.092, 669.496 229.477, 670.635 226.509 C 670.953 225.679, 671.807 225, 672.531 225 C 674.566 225, 699.325 241.724, 710.558 250.685 C 752.855 284.430, 775.611 317.054, 791.918 367.330 C 797.231 383.710, 800.325 396.866, 804.040 418.886 C 809.256 449.797, 810.384 463.618, 810.374 496.500 C 810.356 550.685, 804.056 588.427, 787.867 631.322 C 774.270 667.348, 757.754 694.346, 736.044 716.034 C 695.892 756.147, 634.469 781.233, 552 791.201 C 537.799 792.918, 487.692 792.902, 474 791.177 C 399.036 781.731, 341.493 750.902, 287.370 691.189 C 251.216 651.300, 225.122 600.099, 216.110 551.362 C 211.780 527.948, 211.500 524.191, 211.500 489.500 C 211.500 455.012, 212.156 444.868, 216.082 418.599 C 222.880 373.111, 238.541 328.553, 258.442 298.074 C 285.355 256.857, 330.103 218.272, 377.343 195.551 C 446.431 162.321, 517.342 154.879, 596.562 172.544 C 670.102 188.944, 741.191 235.098, 777.471 290 C 811.068 340.842, 828.998 405.513, 833.147 490.814 C 835.404 537.236, 830.680 578.593, 818.905 615.500 C 812.960 634.131, 798.404 669.489, 789.886 685.987 C 786.624 692.304, 784.619 696.804, 785.431 695.987 C 788.727 692.666, 797.139 677.214, 803.460 662.867 C 810.969 645.826, 814.268 640.223, 821.928 631.500 C 828.430 624.096, 830.931 619.267, 834.883 606.484 C 838.607 594.441, 841.221 581.891, 843.626 564.500 C 846.342 544.865, 846.092 494.957, 843.135 466.500 C 837.379 411.122, 827.257 368.806, 809.854 327.374 C 790.833 282.089, 756.051 239.131, 713.986 208.970 C 659.829 170.139, 596.043 149.850, 524 148.540 C 511.625 148.315, 496.848 148.546, 491.163 149.054 M 976.668 154.250 C 983.585 161.966, 1010.405 201.354, 1018.372 215.497 C 1024.826 226.952, 1025.543 226.400, 1024.439 210.829 L 1023.723 200.724 1016.928 190.612 C 1010.360 180.839, 1001.818 172.070, 986 158.864 C 978.272 152.412, 972.433 149.525, 976.668 154.250 M 1007 162.980 C 1007 164.069, 1008.800 167.331, 1010.999 170.230 C 1013.199 173.128, 1016.589 178.521, 1018.534 182.213 C 1020.479 185.904, 1022.504 189.193, 1023.035 189.522 C 1023.626 189.887, 1024 186.822, 1024 181.607 L 1024 173.097 1016.814 167.048 C 1009.230 160.665, 1007 159.740, 1007 162.980 M 112.787 173.384 C 105.265 176.895, 97.569 180.721, 95.683 181.887 C 91.753 184.316, 70.733 207.262, 60.279 220.536 C 54.448 227.939, 40.897 248.849, 35.998 258.004 C 34.643 260.535, 35.858 260.161, 39.500 256.926 C 40.600 255.948, 49.375 250.355, 59 244.497 C 78.442 232.662, 85.438 226.589, 94.671 213.534 C 112.924 187.724, 117.826 180.905, 122.015 175.500 C 127.539 168.373, 128.391 167, 127.290 167 C 126.835 167, 120.308 169.873, 112.787 173.384 M 26.459 169.067 C 26.096 169.653, 26.014 170.348, 26.276 170.610 C 26.538 170.872, 27.019 170.392, 27.345 169.543 C 28.021 167.781, 27.445 167.471, 26.459 169.067 M 22.596 176.611 C 22.086 177.940, 22.461 178.103, 24.739 177.540 C 28.967 176.496, 29.891 175, 26.307 175 C 24.385 175, 22.980 175.610, 22.596 176.611 M 16.421 185.477 C 11.440 187.959, 3 195.229, 3 197.037 C 3 197.567, 3.900 198, 5 198 C 7.635 198, 7.507 199.184, 3.973 207.471 C 2.338 211.305, 1 216.234, 1 218.423 C 1 222.182, 1.465 221.567, 9.358 207.372 C 13.955 199.104, 18.948 190.239, 20.453 187.670 C 21.958 185.102, 22.786 183, 22.291 183 C 21.797 183, 19.156 184.115, 16.421 185.477 M 269.285 188.176 C 255.032 200.138, 222.040 234.787, 210.593 249.816 C 204.388 257.962, 195 272.915, 195 274.653 C 195 275.416, 196.062 276, 197.449 276 C 201.474 276, 213.019 265.566, 220.133 255.500 C 223.632 250.550, 229.377 243.125, 232.899 239 C 239.987 230.701, 262.747 207.846, 273.250 198.482 C 280.271 192.221, 281.425 189.568, 278.429 186.571 C 276.062 184.205, 273.476 184.659, 269.285 188.176 M 46.730 191.974 C 41.182 192.539, 39.425 193.177, 36.987 195.512 C 33.328 199.018, 27.152 209.295, 22.092 220.300 C 18.778 227.506, 8.572 244.986, 2.877 253.210 C 1.380 255.370, 1.007 257.701, 1.035 264.710 C 1.066 272.324, 1.239 273.196, 2.331 271.231 C 3.024 269.983, 5.233 267.608, 7.239 265.955 C 9.245 264.301, 12.571 260.147, 14.630 256.724 C 25.332 238.925, 33.006 228.815, 46.424 214.835 C 63.807 196.725, 64.816 195.926, 71.305 195.134 C 76.685 194.477, 77.826 192.981, 73.809 191.850 C 70.841 191.014, 55.462 191.084, 46.730 191.974 M 485 192.481 C 450.637 196.895, 415.362 207.281, 386.500 221.483 C 331.196 248.696, 290.343 290.401, 264.763 345.759 C 238.167 403.316, 230.501 496.312, 247.086 560.198 C 255.633 593.121, 270.476 623.777, 290.584 650.037 C 305.718 669.800, 335.849 695.831, 370 718.647 C 418.430 751.001, 465.620 768.140, 510.648 769.727 C 529.838 770.404, 542.667 769.059, 569.944 763.513 C 626.030 752.108, 652.631 743.073, 683.659 724.891 C 715.344 706.323, 734.094 685.783, 753.850 648 C 771.465 614.311, 779.391 587.609, 784.719 544 C 786.970 525.582, 787.235 468.063, 785.156 449.500 C 778.272 388.052, 760.685 339.731, 731.615 302.394 C 714.835 280.841, 683.235 252.848, 665.750 244.046 C 662.619 242.470, 662.154 239.104, 664.500 235 C 665.286 233.625, 665.945 231.730, 665.965 230.789 C 666.012 228.499, 662.397 225.177, 657.500 223.012 C 655.300 222.040, 651.025 220.103, 648 218.709 C 624.892 208.059, 591.404 198.446, 560 193.448 C 545.748 191.180, 499.744 190.587, 485 192.481 M 491.500 203.128 C 450.733 207.014, 408.880 219.898, 376.375 238.569 C 357.254 249.553, 331.601 269.930, 318.414 284.611 C 292.229 313.761, 277.131 340.855, 264.640 381.110 C 255.467 410.671, 252.076 433.147, 251.280 469.665 C 249.764 539.146, 263.995 591.258, 296.299 634.524 C 304.155 645.045, 313.206 653.015, 328 662.437 C 332.125 665.064, 339.325 670.968, 344 675.556 C 373.383 704.394, 418.099 731.523, 457.563 744.452 C 500.950 758.667, 544.045 758.349, 605.854 743.359 C 646.145 733.587, 678.445 719.293, 698.964 702.155 C 730.886 675.492, 750.835 642.041, 765.847 590 C 774.102 561.386, 776.069 546.848, 776.726 509.629 C 777.620 458.922, 774.214 428.550, 763.478 391.500 C 755.470 363.867, 745.247 341.638, 730.007 318.727 C 715.537 296.972, 703.579 283.765, 680.201 263.720 C 671.786 256.505, 663.373 248.475, 661.506 245.876 C 651.534 231.995, 611.380 214.743, 572 207.420 C 544.881 202.377, 515.702 200.821, 491.500 203.128 M 502.500 220.664 C 478.470 221.600, 447.919 227.524, 423.500 235.985 C 412.392 239.833, 389.362 251.001, 378.037 258.032 C 337.284 283.331, 305.303 321.317, 287.977 365 C 279.943 385.255, 272.161 418.316, 269.531 443.368 C 265.900 477.942, 269.201 522.146, 278.023 557.091 C 285.446 586.495, 294.764 604.991, 315.613 631.712 C 331.117 651.582, 336.810 657.770, 352.429 671.724 C 400.134 714.347, 446.890 738.008, 498.459 745.623 C 514.090 747.931, 539.104 747.080, 555.500 743.683 C 595.859 735.320, 640.816 718.095, 666.545 701.136 C 688.101 686.928, 712.696 660.784, 732.336 631.200 C 747.789 607.925, 756.001 582.668, 761.665 541 C 764.483 520.268, 764.195 463.123, 761.173 443.456 C 755.033 403.495, 742.425 367.180, 724.220 337.020 C 701.315 299.073, 665.185 264.088, 629.921 245.708 C 611.822 236.275, 585.287 227.927, 560.959 224.015 C 549.639 222.194, 518.257 219.755, 512 220.210 C 510.625 220.310, 506.350 220.514, 502.500 220.664 M 499.500 233.660 C 455.996 237.184, 416.950 249.553, 382.965 270.576 C 331.564 302.371, 297.447 355.647, 286.637 421 C 275.039 491.113, 283.702 554.503, 311.190 600.666 C 316.412 609.435, 318.448 611.912, 323 615.030 C 329.255 619.316, 332.610 622.749, 339.582 632 C 346.547 641.241, 365.675 660.693, 376.923 669.974 C 425.559 710.104, 474.881 729.006, 530.936 728.997 C 554.194 728.994, 571.671 726.188, 605.500 717.027 C 622.297 712.478, 645.479 702.171, 658 693.685 C 675.326 681.942, 697.231 659.621, 709.702 641 C 734.195 604.428, 744.028 576.677, 750.103 526.979 C 752.889 504.185, 753.131 472.072, 750.652 454.109 C 742.037 391.678, 717.580 337.785, 680.180 298.820 C 659.880 277.670, 635.980 261.939, 606 249.995 C 575.268 237.752, 531.625 231.058, 499.500 233.660 M 85.074 240.562 C 75.942 246.067, 59 257.723, 59 258.501 C 59 258.977, 63.096 257.201, 68 254.598 C 74.686 251.050, 96.570 235.136, 94.900 235.036 C 94.570 235.016, 90.149 237.503, 85.074 240.562 M 501 250.999 C 450.037 254.783, 396.337 277.421, 360.390 310.275 C 336.817 331.819, 314.763 372.982, 304.517 414.558 C 298.859 437.516, 297.580 448.707, 297.552 475.500 C 297.525 501.670, 298.956 515.570, 304.128 539.388 C 309.150 562.519, 319.994 587.818, 334.820 611 C 344.999 626.913, 361.909 646.170, 378.476 660.711 C 411.218 689.450, 449.541 708.682, 488 715.676 C 499.832 717.827, 536.883 718.130, 550.500 716.186 C 581.980 711.693, 613.713 700.550, 639.500 684.933 C 664.721 669.659, 689.680 644.720, 704.212 620.271 C 720.288 593.226, 730.243 565.488, 735.890 532 C 743.160 488.889, 739.658 446.042, 725.344 403 C 712.977 365.809, 695.756 338.588, 666.715 310.328 C 652.832 296.818, 643.430 289.499, 629.141 281.079 C 590.360 258.229, 545.490 247.696, 501 250.999 M 499.354 268.018 C 462.698 271.582, 416.807 288.845, 386.500 310.471 C 364.381 326.254, 342.061 356.949, 329.760 388.500 C 315.480 425.125, 310.307 457.246, 313.010 492.500 C 316.751 541.296, 332.823 584.942, 359.184 617.896 C 390.352 656.857, 433.710 685.052, 479.221 695.952 C 510.183 703.368, 545.882 702.976, 575 694.900 C 613.683 684.171, 638.592 669.695, 664.528 642.871 C 697.276 609.001, 717.485 565.086, 724.062 513.500 C 724.694 508.550, 725.210 496.400, 725.211 486.500 C 725.214 423.930, 705.661 370.676, 668.530 332.124 C 635.003 297.313, 594.201 275.760, 550 269.514 C 536.608 267.621, 511.167 266.870, 499.354 268.018 M 501.500 276.647 C 466.712 280.680, 436.929 290.940, 412.539 307.292 C 382.321 327.553, 363.044 350.340, 345.532 386.500 C 337.923 402.212, 333.776 413.378, 330.017 428.279 C 320.997 464.035, 321.477 499.527, 331.507 538.500 C 342.470 581.099, 357.991 608.504, 386.769 636.074 C 434.044 681.366, 496.273 699.700, 559.404 686.933 C 632.803 672.091, 690.978 612.739, 708.387 534.934 C 720.076 482.697, 713.404 424.829, 690.545 380.186 C 656.792 314.267, 592.779 275.400, 519.199 276.150 C 511.114 276.232, 503.150 276.456, 501.500 276.647 M 850.655 278.829 C 848.605 281.094, 848.521 286.173, 850.471 289.944 C 851.280 291.509, 854.626 295.199, 857.907 298.144 C 863.531 303.194, 864.268 304.416, 870.783 319.500 C 896.577 379.218, 910.250 435.890, 913.970 498.500 C 915.728 528.077, 915.026 559.080, 912.358 569.710 C 911.795 571.951, 911.847 571.965, 915.643 570.607 C 928.092 566.152, 928.250 565.716, 928.790 534.231 C 929.279 505.664, 927.929 482.788, 924.407 460 C 918.555 422.133, 910.244 388.390, 898.550 355.019 C 891.631 335.275, 889.343 329.562, 881.518 312.500 C 877.483 303.700, 873.659 294.536, 873.021 292.135 C 871.510 286.448, 868.425 283.483, 863.137 282.638 C 860.512 282.218, 857.976 280.998, 856.566 279.477 C 853.825 276.519, 852.843 276.411, 850.655 278.829 M 23.655 285.829 C 22.745 286.835, 21.993 288.522, 21.985 289.579 C 21.973 291.024, 21.758 291.167, 21.117 290.156 C 20.410 289.040, 19.776 289.066, 17.383 290.311 C 12.447 292.878, 10.069 296.342, 4.952 308.416 L 0 320.101 0 350.598 L 0 381.096 4.282 378.150 C 6.638 376.529, 10.800 373.976, 13.532 372.476 C 16.265 370.975, 19.518 368.821, 20.763 367.687 C 24.864 363.954, 25.006 366.869, 21.437 381.500 C 16.676 401.021, 12.308 427.970, 10.525 448.827 C 7.341 486.077, 7.096 487.312, 7.510 464 C 7.899 442.145, 10.162 420.638, 13.903 403.250 C 14.879 398.712, 15.309 395, 14.860 395 C 14.410 395, 10.872 397.313, 6.997 400.140 L -0.048 405.281 0.226 500.890 L 0.500 596.500 5.247 618.142 C 11.065 644.659, 17.073 665.628, 25.649 689.338 C 41.284 732.562, 55.831 761.433, 80.399 797.997 C 87.605 808.720, 97.054 821.995, 101.399 827.497 C 110.844 839.459, 135.355 864.084, 153.947 880.290 C 165.806 890.628, 168.201 892.271, 174.230 894.213 C 179.936 896.051, 181.155 896.835, 181.602 898.957 C 183.438 907.658, 193.387 928.203, 197.653 932.103 C 199.219 933.534, 202.750 936.221, 205.500 938.073 C 208.250 939.925, 214.566 944.603, 219.536 948.470 C 234.490 960.105, 272.400 984.010, 300 999.210 C 313.221 1006.491, 315.824 1007.882, 331.158 1015.856 L 346.816 1024 366.158 1023.984 L 385.500 1023.967 375.130 1019.480 C 369.426 1017.012, 362.001 1014.294, 358.630 1013.441 C 355.258 1012.588, 348 1009.698, 342.500 1007.019 C 334.177 1002.964, 331.913 1001.344, 329 997.360 C 324.307 990.943, 311.228 982.233, 297.512 976.393 C 280.218 969.030, 273.840 965.701, 267.886 960.933 C 264.842 958.495, 256.315 951.775, 248.936 946 C 229.010 930.405, 227.214 928.611, 226.453 923.532 C 225.619 917.975, 227.152 915, 230.848 915 C 233.097 915, 236.185 917.615, 247.087 928.750 C 258.988 940.906, 261.626 943.071, 269.843 947.426 C 275.451 950.399, 281.820 954.836, 285.901 958.615 C 292.482 964.708, 298.174 967.904, 308.625 971.375 C 311.422 972.304, 315.908 974.459, 318.595 976.162 C 321.282 977.866, 326.418 980.075, 330.009 981.070 C 333.600 982.065, 340.354 984.993, 345.019 987.577 C 352.797 991.885, 356.924 993.909, 377.500 1003.501 C 387.561 1008.192, 390.813 1009.515, 407 1015.508 C 432.399 1024.912, 421.430 1024.122, 521.646 1023.762 L 610.500 1023.443 627.500 1020.172 C 684.085 1009.286, 735.099 990.745, 777.868 965.521 C 786.549 960.402, 816.753 939.999, 824.883 933.763 C 839.947 922.208, 853.707 909.674, 861.351 900.546 C 865.721 895.328, 865.289 895.326, 858 900.532 C 848.360 907.418, 813.973 929.983, 804.094 935.906 C 752.870 966.618, 678.862 991.646, 614.722 999.950 C 559.638 1007.081, 502.582 1006.075, 443.500 996.931 C 409.467 991.663, 378.930 983.454, 354.494 973.003 C 334.922 964.633, 289.693 940.954, 269.500 928.506 C 258.732 921.868, 202.266 884.358, 187.500 874.035 C 139.003 840.126, 104.836 801.965, 73.593 746.810 C 50.787 706.550, 31.858 655.312, 21.565 605.981 C 14.815 573.630, 12.130 547.283, 11.326 505.500 C 10.514 463.356, 12.083 445.703, 20.610 401 C 26.734 368.897, 32.953 347.860, 43.819 322.500 C 53.196 300.615, 55.808 295.257, 58.175 293.051 C 59.386 291.923, 59.997 291, 59.533 291 C 57.542 291, 52.760 295.176, 20.327 325.232 C 9.493 335.273, 7.450 336.618, 5.495 334.996 C 1.777 331.910, 6.051 316.874, 12.467 310.469 C 13.035 309.902, 16.313 307.288, 19.750 304.660 L 26 299.883 26 291.942 C 26 287.574, 25.845 284, 25.655 284 C 25.465 284, 24.565 284.823, 23.655 285.829 M 499.500 291.487 C 467.176 295.569, 437.451 307.706, 410.087 327.996 C 384.137 347.236, 362.993 375.915, 350.364 409 C 346.936 417.981, 341.366 439.584, 339.534 451 C 333.178 490.623, 339.667 533.061, 357.722 569.950 C 383.109 621.820, 427.421 658.637, 478.226 670.072 C 539.273 683.811, 598.758 668.120, 639.568 627.513 C 666.614 600.602, 683.904 570.138, 693.494 532.500 C 698.381 513.320, 699.485 503.344, 699.470 478.500 C 699.455 453.369, 697.436 438.330, 691.383 418.246 C 675.154 364.403, 632.841 318.857, 582.500 301.044 C 556.122 291.710, 525.581 288.194, 499.500 291.487 M 19.556 295.556 C 19.179 297.562, 19.096 299.429, 19.371 299.704 C 19.646 299.979, 20.179 298.562, 20.556 296.556 C 20.932 294.549, 21.015 292.682, 20.740 292.407 C 20.465 292.132, 19.932 293.549, 19.556 295.556 M 498 302.487 C 457.752 309.369, 425.166 326.360, 397.979 354.641 C 368.349 385.463, 351.913 421.695, 347.898 465.044 C 342.131 527.306, 366.354 588.774, 411.880 627.398 C 434.682 646.744, 458.352 657.765, 487.586 662.648 C 502.637 665.162, 535.527 665.170, 548.852 662.663 C 572.054 658.297, 595.438 648.829, 615 635.881 C 628.504 626.942, 648.503 606.789, 657.519 593.033 C 693.830 537.635, 701.912 472.289, 680.034 411 C 666.613 373.405, 643.201 344.569, 610.398 325.230 C 589.037 312.637, 573.853 307.056, 550.125 303.076 C 535.731 300.661, 510.355 300.375, 498 302.487 M 152.376 308.765 C 151.757 309.169, 150.307 313.100, 149.154 317.500 C 148 321.900, 144.784 333.825, 142.007 344 C 136.348 364.731, 129.917 394.906, 127.620 411.500 C 119.314 471.502, 121.247 539.633, 132.669 589.500 C 145.416 645.153, 175.940 704.550, 214.380 748.500 C 246.472 785.193, 285.999 814.719, 338.535 841.241 C 385.857 865.132, 427.311 875.970, 482.500 878.882 C 514.259 880.557, 545.702 877.344, 569.824 869.956 C 577.618 867.569, 596.137 859.803, 595.515 859.182 C 595.266 858.932, 592.460 859.235, 589.281 859.854 C 577.879 862.076, 549.115 865.013, 528 866.112 C 478.064 868.712, 425.053 862.504, 387.500 849.661 C 353.519 838.039, 315.788 817.905, 283.500 794.165 C 258.032 775.439, 230.121 749.239, 214.079 729 C 192.090 701.257, 165.289 654.924, 152.475 622.500 C 133.352 574.110, 127.530 543.500, 127.559 491.500 C 127.575 461.632, 128.299 452.641, 133.076 423 C 138.275 390.740, 144.052 368.792, 156.153 335.332 C 159.369 326.440, 161.998 318.115, 161.996 316.832 C 161.990 313.122, 158.369 307.998, 155.765 308.015 C 154.519 308.024, 152.994 308.361, 152.376 308.765 M 506 317.008 C 470.564 321.883, 437.481 337.417, 413.037 360.660 C 388.740 383.762, 372.384 413.662, 364.986 448.500 C 362.314 461.083, 361.267 488.076, 362.879 502.823 C 365.892 530.395, 378.176 563.088, 393.752 584.989 C 413.307 612.486, 439.527 632.369, 468.882 641.961 C 485.871 647.513, 498.468 649.413, 518.500 649.443 C 541.334 649.477, 553.843 647.346, 575 639.816 C 604.092 629.463, 631.779 606.660, 651.572 576.754 C 683.442 528.601, 688.141 454.093, 662.529 403 C 653.096 384.182, 644.932 372.799, 630.971 359 C 603.168 331.519, 569.424 317.527, 528.500 316.511 C 519.700 316.292, 509.575 316.516, 506 317.008 M 999.566 328.893 C 999.262 329.385, 1000.091 333.097, 1001.407 337.143 C 1006.558 352.981, 1009.091 362.253, 1013.459 381.271 C 1015.957 392.146, 1018 401.726, 1018 402.562 C 1018 403.397, 1017.021 405.405, 1015.824 407.024 L 1013.649 409.966 1016.074 432.733 C 1018.184 452.538, 1018.491 460.053, 1018.430 490.500 C 1018.382 514.528, 1017.823 531.770, 1016.648 545.500 C 1013.855 578.132, 1007.617 626.049, 1003.391 647.338 C 1001.990 654.399, 1001.027 660.360, 1001.251 660.585 C 1002.335 661.669, 1017.040 614.860, 1019.970 601 C 1023.951 582.162, 1023.965 581.753, 1023.983 477.205 L 1024 375.910 1021.511 365.852 C 1013.060 331.694, 1011.343 328, 1003.923 328 C 1001.830 328, 999.870 328.402, 999.566 328.893 M 500.500 336.926 C 468.171 342.623, 444.140 355.454, 421.475 379.120 C 395.116 406.642, 378.822 451.010, 381.488 488 C 386.128 552.384, 420.330 600.371, 476.500 621.309 C 518.832 637.088, 565.327 629.975, 602.500 602.031 C 622.981 586.635, 636.057 570.565, 647.532 546.689 C 658.084 524.732, 663.015 503.338, 662.982 479.651 C 662.924 438.545, 649.777 404.883, 622.637 376.355 C 601.464 354.098, 574.523 340.178, 544.678 336.075 C 533.086 334.482, 512.073 334.886, 500.500 336.926 M 857 345 C 854.310 347.690, 854.431 349.025, 858.556 362.168 C 867.565 390.879, 875.528 424.905, 879.931 453.500 C 886.940 499.023, 888.754 545.946, 884.409 569.338 C 879.686 594.761, 872.533 617.047, 860.633 643.412 C 856.435 652.713, 853 660.652, 853 661.055 C 853 664.584, 867.247 661.171, 877.286 655.237 C 886.135 650.005, 888.432 647.160, 889.378 640.260 C 889.917 636.329, 889.633 635.077, 887.506 632.009 C 884.293 627.373, 884.353 624.829, 887.950 613.111 C 891.187 602.569, 895.123 585.434, 897.483 571.619 C 899.242 561.318, 899.397 544.469, 897.984 517 C 896.043 479.267, 893.657 458.546, 887.391 425 C 883.521 404.281, 882.242 399.167, 874.514 373.500 C 871.533 363.600, 868.599 353.564, 867.994 351.197 C 866.063 343.641, 861.136 340.864, 857 345 M 506.029 381.562 C 475.157 388.254, 445.767 412.390, 433.963 440.743 C 428.768 453.223, 426.840 462.270, 426.260 476.890 C 425.676 491.625, 426.663 499.483, 430.734 512.500 C 439.667 541.071, 462.257 564.962, 490.500 575.709 C 503.768 580.758, 508.239 581.508, 524.500 581.410 C 537.660 581.331, 540.604 580.993, 548.500 578.658 C 581.530 568.891, 605.382 546.755, 617.390 514.724 C 621.564 503.590, 623.281 493.610, 623.278 480.500 C 623.267 433.173, 588.925 391.563, 541.979 381.996 C 530.513 379.659, 515.635 379.479, 506.029 381.562 M 0.031 695.670 C 0.001 711.223, 0.118 712.178, 3.098 720.670 C 14.515 753.213, 30.851 789.813, 42.459 808.859 C 47.795 817.614, 49 820.372, 49 823.827 C 49 829.204, 47.620 829.752, 41.120 826.956 C 31.889 822.985, 25.889 814.477, 11.886 785.500 C 7.634 776.700, 3.244 767.250, 2.132 764.500 C 1.019 761.750, 0.085 760.292, 0.055 761.259 C -0.107 766.477, 26.215 820.015, 38.031 838.500 C 41.898 844.550, 49.708 855.350, 55.386 862.500 C 67.957 878.329, 104.946 918.858, 108.750 920.972 C 110.913 922.174, 115.340 922.518, 129.507 922.585 C 141.986 922.643, 148.279 923.061, 150.007 923.945 C 151.378 924.647, 156.507 929.109, 161.405 933.860 L 170.310 942.500 165.411 936.128 C 162.717 932.623, 158.097 927.547, 155.143 924.848 C 151.039 921.097, 149.554 918.946, 148.841 915.720 C 148.092 912.335, 146.162 909.720, 139.081 902.500 C 121.275 884.342, 87.410 840.613, 65.511 807.500 C 36.884 764.214, 20.166 732.208, 3.876 689.500 L 0.062 679.500 0.031 695.670 M 181 786.378 C 181 786.585, 181.787 787.373, 182.750 788.128 C 184.336 789.371, 184.371 789.336, 183.128 787.750 C 181.821 786.084, 181 785.555, 181 786.378 M 806.004 806.635 C 798.092 814.099, 796.897 816.796, 799.423 821.486 L 801.138 824.671 806.076 823.390 C 812.430 821.742, 812.725 821.531, 813.483 818.075 C 813.834 816.479, 815.914 812.200, 818.106 808.565 C 820.298 804.931, 821.820 801.517, 821.487 800.979 C 821.154 800.440, 819.117 800, 816.960 800 C 813.498 800, 812.213 800.778, 806.004 806.635 M 0.004 826.816 C 0.001 835.643, 0.439 841.969, 1.146 843.316 C 1.776 844.517, 5.910 850.225, 10.334 856 C 32.047 884.348, 68.948 921.778, 106.987 954.038 C 113.772 959.792, 125.213 969.617, 132.412 975.871 C 147.660 989.119, 167.237 1005.259, 181.388 1016.250 L 191.367 1024 207.849 1024 L 224.330 1024 216.075 1018.986 C 206.332 1013.069, 201.358 1009.700, 190.319 1001.544 C 185.820 998.220, 179.070 993.575, 175.319 991.221 C 168.800 987.131, 157.809 978.321, 163 981.347 C 166.774 983.546, 170.746 984.015, 178.866 983.221 L 186.232 982.500 175.734 971.473 C 164.536 959.711, 155.556 953.388, 154.384 956.442 C 154.006 957.427, 155.128 959.506, 157.390 962.010 C 160.797 965.781, 160.998 966.385, 160.964 972.753 L 160.928 979.500 155.759 973.639 C 152.915 970.415, 146.969 965.050, 142.545 961.717 C 128.697 951.285, 118.296 942.276, 92.500 918.372 C 57.695 886.119, 38.608 865.322, 15.982 835 C 9.210 825.925, 2.846 817.150, 1.839 815.500 C 0.009 812.503, 0.007 812.514, 0.004 826.816 M 1017.500 821.122 C 1014.200 823.990, 1007.675 830.013, 1003 834.505 C 998.325 838.997, 992.587 844.134, 990.250 845.920 C 987.913 847.706, 986 849.736, 986 850.429 C 986 854.536, 977.882 856.385, 975.632 852.792 C 974.427 850.866, 975.301 849.528, 988.039 833.806 C 1004.300 813.733, 1004.246 813.323, 987.247 827.745 C 977.067 836.381, 963.635 850.586, 955.802 861 C 953.941 863.475, 950.196 867.075, 947.481 869 C 944.766 870.925, 934.885 879.943, 925.522 889.041 C 895.170 918.535, 858.235 949.162, 821 975.713 C 799.691 990.908, 784.018 1000.321, 754.500 1015.652 L 738.500 1023.962 765.045 1023.981 L 791.589 1024 804.545 1015.244 C 822.088 1003.387, 849.645 982.687, 857.009 975.834 C 858.388 974.550, 862.888 970.583, 867.009 967.017 C 884.209 952.131, 911.470 925.266, 943.541 891.595 C 961.455 872.787, 966.022 869, 970.786 869 C 972.094 869, 970.417 871.271, 965.063 876.750 C 960.898 881.013, 951.418 890.848, 943.995 898.608 C 936.573 906.367, 924.875 917.837, 918 924.096 C 911.125 930.356, 898.525 942.031, 890 950.041 C 858.771 979.383, 832.232 1000.336, 803.053 1018.687 L 794.606 1024 804.686 1024 C 813.685 1024, 814.819 1023.800, 815.255 1022.134 C 815.962 1019.431, 827.846 1013.766, 839.500 1010.577 C 856.114 1006.029, 859.115 1004.944, 869 999.901 C 885.965 991.247, 903.498 978.918, 919 964.741 C 959.436 927.760, 966.206 920.783, 980.464 901.391 C 985.434 894.631, 992.875 884.521, 997 878.924 C 1001.125 873.326, 1006.836 865.384, 1009.692 861.275 C 1012.547 857.165, 1016.947 851.563, 1019.469 848.825 L 1024.054 843.848 1023.777 829.877 L 1023.500 815.906 1017.500 821.122 M 790.326 822.147 C 789.727 822.891, 788.083 825.799, 786.673 828.609 C 785.263 831.419, 782.397 835.117, 780.304 836.826 C 777.514 839.105, 776.979 839.942, 778.300 839.966 C 781.181 840.020, 786.168 837.103, 790.750 832.683 C 795.426 828.173, 795.895 826.327, 793.208 823.008 C 791.743 821.199, 791.216 821.042, 790.326 822.147 M 942.173 847.269 C 940.342 847.855, 936.742 850.197, 934.173 852.475 C 931.603 854.753, 927.441 858.072, 924.925 859.852 C 922.409 861.631, 918.723 865.035, 916.733 867.415 C 913.087 871.777, 877.189 904.158, 860.500 918.139 C 838.503 936.567, 809.990 957.073, 787 970.999 C 767.471 982.829, 724.950 1003.470, 699.500 1013.474 C 687.400 1018.231, 676.600 1022.515, 675.500 1022.994 C 674.287 1023.522, 682.966 1023.891, 697.550 1023.932 L 721.600 1024 738.553 1015.662 C 764.784 1002.762, 784.307 990.738, 817.500 967.039 C 851.645 942.660, 881.202 917.767, 909.561 889.503 C 918.944 880.152, 928.881 870.710, 931.642 868.522 C 935.860 865.179, 948 848.946, 948 846.649 C 948 845.786, 946.212 845.976, 942.173 847.269 M 997.707 869.824 C 977.221 897.404, 947.075 930.355, 912.500 962.958 C 905.900 969.181, 903.414 971.849, 906.977 968.887 C 921.340 956.941, 949.940 928.399, 969.515 906.476 C 984.529 889.662, 1009.720 857, 1007.675 857 C 1007.431 857, 1002.945 862.771, 997.707 869.824 M 253.500 868.579 C 264.664 878.632, 293 897.980, 293 895.550 C 293 895.337, 291.318 894.124, 289.263 892.853 C 287.207 891.583, 277.420 884.791, 267.513 877.760 C 257.606 870.729, 251.300 866.598, 253.500 868.579 M 2.500 892 C 2.160 892.550, 2.507 893, 3.272 893 C 4.715 893, 9.239 897.589, 22 911.996 C 32.256 923.575, 48.270 939.271, 66.405 955.521 C 71.302 959.909, 75.802 963.958, 76.405 964.518 C 86.842 974.219, 114 996.750, 114 995.709 C 114 995.454, 107.813 990.071, 100.250 983.746 C 92.688 977.422, 79.750 966.044, 71.500 958.462 C 51.957 940.503, 14.551 902.954, 9.525 896.250 C 5.689 891.133, 3.758 889.965, 2.500 892 M 329 914.475 C 329 914.721, 332.328 917.383, 336.396 920.391 C 343.578 925.702, 349 931.490, 349 933.844 C 349 934.480, 349.509 935, 350.132 935 C 350.880 935, 351.076 933.607, 350.712 930.888 C 350.124 926.504, 346.555 921.895, 341.840 919.432 C 337.998 917.424, 329 913.951, 329 914.475 M 568.500 962.547 C 561.350 963.256, 552.575 963.880, 549 963.933 C 545.425 963.987, 541.825 964.505, 541 965.086 C 537.867 967.290, 577.506 964.366, 583.459 961.954 C 585.462 961.142, 585.463 961.128, 583.500 961.192 C 582.400 961.228, 575.650 961.837, 568.500 962.547 M 115.911 997.337 C 117.373 999.157, 123 1003.442, 123 1002.735 C 123 1002.515, 121.088 1000.815, 118.750 998.957 C 116.412 997.100, 115.135 996.370, 115.911 997.337 M 128.515 1007.024 C 128.904 1007.654, 133.447 1011.303, 138.611 1015.134 C 143.775 1018.964, 148 1022.526, 148 1023.049 C 148 1023.572, 149.238 1023.974, 150.750 1023.941 C 153.227 1023.888, 153.321 1023.764, 151.695 1022.691 C 150.703 1022.036, 144.922 1017.985, 138.849 1013.689 C 132.776 1009.394, 128.126 1006.394, 128.515 1007.024" stroke="none" fill="inherit" fill-rule="evenodd"></path>
</g></svg><svg id="name" viewBox="0 0 157.08999633789062 33.119998931884766" width="157" height="33.10102459434388" x="100" y="23.94948770282806" data-v-719f541d="" style="fill: rgb(255, 255, 255);"><rect x="0" y="0" width="100%" height="100%" fill="none" data-v-719f541d=""></rect><g data-v-719f541d=""><path xmlns="http://www.w3.org/2000/svg" d="M0 32.66L0 0.46L13.39 0.46L13.39 5.06L5.06 5.06L5.06 14.03L11.59 14.03L11.59 18.63L5.06 18.63L5.06 32.66L0 32.66ZM23.18 33.12Q19.50 33.12 17.57 31.03Q15.64 28.93 15.64 25.02L15.64 25.02L15.64 0.46L20.70 0.46L20.70 25.39Q20.70 27.05 21.37 27.78Q22.03 28.52 23.28 28.52L23.28 28.52Q24.52 28.52 25.19 27.78Q25.85 27.05 25.85 25.39L25.85 25.39L25.85 0.46L30.73 0.46L30.73 25.02Q30.73 28.93 28.80 31.03Q26.86 33.12 23.18 33.12L23.18 33.12ZM34.32 32.66L34.32 0.46L39.38 0.46L39.38 28.06L47.70 28.06L47.70 32.66L34.32 32.66ZM50.14 32.66L50.14 0.46L55.20 0.46L55.20 28.06L63.53 28.06L63.53 32.66L50.14 32.66ZM73.32 32.66L73.32 0.46L80.55 0.46L83.77 23.51L83.86 23.51L87.08 0.46L94.30 0.46L94.30 32.66L89.52 32.66L89.52 8.28L89.42 8.28L85.74 32.66L81.51 32.66L77.83 8.28L77.74 8.28L77.74 32.66L73.32 32.66ZM105.43 33.12Q101.75 33.12 99.82 31.03Q97.89 28.93 97.89 25.02L97.89 25.02L97.89 0.46L102.95 0.46L102.95 25.39Q102.95 27.05 103.62 27.78Q104.28 28.52 105.52 28.52L105.52 28.52Q106.77 28.52 107.43 27.78Q108.10 27.05 108.10 25.39L108.10 25.39L108.10 0.46L112.98 0.46L112.98 25.02Q112.98 28.93 111.04 31.03Q109.11 33.12 105.43 33.12L105.43 33.12ZM123.14 33.12Q119.46 33.12 117.58 31.03Q115.69 28.93 115.69 25.02L115.69 25.02L115.69 23.18L120.47 23.18L120.47 25.39Q120.47 28.52 123.10 28.52L123.10 28.52Q124.38 28.52 125.05 27.76Q125.72 27.00 125.72 25.30L125.72 25.30Q125.72 23.28 124.80 21.73Q123.88 20.19 121.39 18.03L121.39 18.03Q118.27 15.27 117.02 13.04Q115.78 10.81 115.78 8.00L115.78 8.00Q115.78 4.19 117.71 2.09Q119.65 0 123.33 0L123.33 0Q126.96 0 128.82 2.09Q130.69 4.19 130.69 8.10L130.69 8.10L130.69 9.43L125.90 9.43L125.90 7.77Q125.90 6.12 125.26 5.36Q124.61 4.60 123.37 4.60L123.37 4.60Q120.84 4.60 120.84 7.68L120.84 7.68Q120.84 9.43 121.79 10.95Q122.73 12.47 125.21 14.63L125.21 14.63Q128.39 17.39 129.58 19.64Q130.78 21.90 130.78 24.93L130.78 24.93Q130.78 28.89 128.82 31.00Q126.87 33.12 123.14 33.12L123.14 33.12ZM133.68 32.66L133.68 0.46L138.74 0.46L138.74 32.66L133.68 32.66ZM149.64 33.12Q146.00 33.12 144.10 31.05Q142.19 28.98 142.19 25.21L142.19 25.21L142.19 7.91Q142.19 4.14 144.10 2.07Q146.00 0 149.64 0L149.64 0Q153.27 0 155.18 2.07Q157.09 4.14 157.09 7.91L157.09 7.91L157.09 11.32L152.31 11.32L152.31 7.59Q152.31 4.60 149.78 4.60L149.78 4.60Q147.25 4.60 147.25 7.59L147.25 7.59L147.25 25.58Q147.25 28.52 149.78 28.52L149.78 28.52Q152.31 28.52 152.31 25.58L152.31 25.58L152.31 20.65L157.09 20.65L157.09 25.21Q157.09 28.98 155.18 31.05Q153.27 33.12 149.64 33.12L149.64 33.12Z"></path></g></svg><!----></svg>